<svg xmlns="http://www.w3.org/2000/svg" viewBox="0 0 267.82 452.08"><defs><style>.cls-1{opacity:0.35;}.cls-2{fill:#cb8d2f;}</style></defs><title>Fondo de imagenes</title><g id="guia_estilo" data-name="guia estilo"><g class="cls-1"><path class="cls-2" d="M186.44,0a8.5,8.5,0,0,1-1.25,4.22.64.64,0,0,1-.56.34H167.15l-.16,0c-4-1.31-13.92-.07-19.85-2a.59.59,0,0,0-.54.09,10.49,10.49,0,0,0-2,1.67.59.59,0,0,1-.5.24H121.42a3,3,0,0,0,0-1.19l-3,1.19h-.35c.1-.59,1-1.43.2-1.93a2.85,2.85,0,0,1-1,1.78.61.61,0,0,1-.41.15h-4.62c-.09-.06-.17-.09-.26-.16s-.1.12-.16.16h-4a2.17,2.17,0,0,0-.56-.22,1.49,1.49,0,0,1-.82.22H5.7A.73.73,0,0,0,5,5.34V23.81A1.36,1.36,0,0,1,5,24c-.64,2.88-1.31,5.9-2,6.52a.82.82,0,0,0-.3.75c1.33,9.3-2.48,24.07-.19,38.87-.38,3.35-.6-2.86-1-1.07.79,3.85,1,8.49.6,17.1l-.19-1c.19,24.18-.59,34.55-1.11,61.72l.91-2c-.12,5.83-.4,7.06-.63,9.8,1.38,6.7.07-16.4,1.6-10.3-1.84,7.69-.06,40.64-2.09,46.27a1,1,0,0,0,0,.3c0,8.64,1.05-2.65,1.05,6.07a.71.71,0,0,1,0,.21l-.49,2a1,1,0,0,0,0,.48l.62,1.89a1,1,0,0,1,0,.3c-.13,5.78-.84,8.7-1.32,8.92.06-1.43-.13-4.06-.18-5.59-.67,7.63.23,21.53,0,24.15l.36-8.63c.53,24.51-.22,54.44.94,78.12l.43-1.8c.8,18.08-.47,14.48-.1,34.34l-.1-.72c.21,2,.37,73.72.48,76.22,0,1.25.08,2.55.1,3.87s0,3.5,0,5.25c-.25-3.32-.49-.1-.75,3.28s-.51,6.75-.79,1.89c.36,12.25.54,16.28.73,18.25a.66.66,0,0,0,1.05.55,45,45,0,0,1,3.9-2.74.63.63,0,0,1,.9.28c.12.23.24.45.37.67a.63.63,0,0,0,1,.22,19.54,19.54,0,0,1,2.17-1.65,7.07,7.07,0,0,1,1.62-.66,11.84,11.84,0,0,1,2.14-.47c-2.65,1.5,1.26,2.69-.21,4.5a.82.82,0,0,0,.29,1.23c6.49,2.76,10-3.71,13.15.49a.64.64,0,0,0,1.14-.16c1.52-4-7-2-5.2-3.09-1.64-1.77,2.89-4,5.29-3.5,2.43.13,4.14,6.91,10.27,6.81-.61,0-.65.38-1.26.36,2.15,1.29,4.22-1.48,6.8,0a.62.62,0,0,0,.84-.23c1.52-2.25,3.35.49,3.78-3.39l-1.75.29c-.72.13-1.08-1-.45-1.43,1.93-1.37,4.09-2.7,6.93-1.89a.83.83,0,0,1,.26,1.36,5.9,5.9,0,0,1-.46.39c-.61.49-.18,1.59.54,1.4a2.71,2.71,0,0,1,1.69-.07.82.82,0,0,1,.4,1c-1.08,3.11-6.9.42-10.1,3.4,1.64,1.76,6.46-3,4.74,1.5,2.47-5.74,6,.72,10.19-3.66l-.1.94c-.07.63.5,1.09,1,.79a3.79,3.79,0,0,1,2.07-.74l-.79,1.17a.79.79,0,0,0,.57,1.25c2.63-.16,5.15,2.93,7.74,1.73-5.87.07-2.68-2.26-3.62-4.06a.81.81,0,0,1,.38-1.17c5.47-1.6,4.86,3.67,8.84,5.33a.76.76,0,0,0,.87-1.08c-.2-.4-.1-.82.5-1.17a12.25,12.25,0,0,1,5,2.54.64.64,0,0,0,.52.21c3-.29,2.48-1,1.73-1.79-.52-.57,0-1.59.68-1.3,1.21.53,2.12-1.48,3.67-2.63a.69.69,0,0,1,1,.65v.68a.76.76,0,0,0,.55.76c5.77,1.06,2.12-4.46,6.48-3.73a.81.81,0,0,1,.42,1.28l-.53.7c-.43.56,0,1.44.67,1.26l.14,0a.73.73,0,0,1,.8,1h0c-.14.63.4,1.17.92.92,2.31-1.13,3.55-.87,5.89-.32a.7.7,0,0,0,.8-.79,3.67,3.67,0,0,1,3.82-3.65c1.83,1.3-.37,2.15,1.79,2.13a.8.8,0,0,1,.5,1.32c-.67.84-1.45,1.33-2.5.45a.6.6,0,0,0-.93.22c-.16.28-.35.55-.51.83a.85.85,0,0,0,.31,1.15c2.25,1.11,5.26,0,6.72,0a3.49,3.49,0,0,1-1.73-.59l6.4-3.52a1.25,1.25,0,0,1,.47.85c0,.55.52.9,1,.66a5.72,5.72,0,0,1,1-.45c.49-.17,1,.33.85.91-.31,1.66-.64,3.21-2.83,4l5.68-2.13a.6.6,0,0,1,.67.21c.63.73,2.06,1.72,2.22,2.42a.67.67,0,0,0,.49.59c3.24.45,7.66-3.78,11.76-2.68a.65.65,0,0,0,.64-.19,3.25,3.25,0,0,1,1.41-.76c4.09.45,7.72,2.84,12.49.41a.62.62,0,0,1,.79.19l2.5,3.26c3.92-.84-3.83-4.66,2.68-6,3.72-1,2.56,1.68,2.82,3.27a.65.65,0,0,0,1,.48c2.35-2,6.06-5,10-2.21a3.84,3.84,0,0,1-1.34.36.8.8,0,0,0-.29,1.45l.09.05a.85.85,0,0,1,0,1.34c-3.4,2.48-5.56,1.71-2.77,4.37.43-6.79,11.37-1.34,12.85-6.9a.63.63,0,0,1,1-.39l1.3.92c-.61-.07-.71.35-1.31.28,4.14,3.42,3.07-5.17,8.41-4.15a3.7,3.7,0,0,1,2.33,1.43c.16.38.49.6.83.46l2.87-1.23c.47.06.71.28.75.52a.68.68,0,0,0,.7.57l4.57-.41,0,.21a26.68,26.68,0,0,1,3.94-3.59c1.6,1-.81.75-.4,1.65l2.94-1.46a.65.65,0,0,1,.92.51c.2,1.28-1.43,2.38-3.17,2.59a.8.8,0,0,0-.49,1.19c2.35,4.29,2.71-1.12,7.31.25a.82.82,0,0,1,0,1.51l-.25.07a.82.82,0,0,0-.36,1.26c1.28,1.79,2.73,2,4.49,2.58.68.2,1.15-.75.65-1.31-1.76-1.92-3.3-4.22-1-5.3a3.74,3.74,0,0,0,3.74-.16.65.65,0,0,1,.92.44c.43,1.26,1.84,1.06,3.62.9a.74.74,0,0,1,.73.82l-.07,1.26c0,.61.54,1,1,.73,1.52-.93,1.66-2.24,2.79-3.46a.6.6,0,0,1,.55-.19c2.74.47,3.35,3,4,5.09,4.8.53-3.21-4.11,2.26-4.8a.71.71,0,0,1,.25,0c4,1.22,6.76-.14,11.51-2.14.71.29,1,.56,1.13.83.2.51.71.75,1.07.38s.58-.58.9-.87c.39,0,.56.18.63.39a.65.65,0,0,0,1.12.22,3.06,3.06,0,0,0,.6-1.49c.2-.83.64-1.64,2.8-2.09.21-1.47,1.7-.93,4.05,0a.68.68,0,0,0,.89-.66c.24-3.3.5-7.35.61-11.89a130.62,130.62,0,0,0-.35-15c.17-1.51.36-1.08.57-.54s.42,2.05.66,1.34c0-.86-.06-1.38-.09-1.77s-.06-.87-.08-1.28q-.09-1.24-.15-2.31c-.09-1.43-.17-72.06-.24-73.13-.15-2.14-.25-3.69-.36-5.16-.22-2.92-.49-5.51-1.17-11.72V317l.6-8-1-.63c-.6-2.07-1.2-7.75-1.74-13-.07.44-.13.78-.19,1.2v-3c.06.61.12,1.21.19,1.85.07-.46.15-.94.23-1.42a1.29,1.29,0,0,0,0-.34l-.39-1.78a.58.58,0,0,1,0-.19v-6.85c.36,0,.77,1.69,1.18,3.78a1.07,1.07,0,0,1,0,.31c-.24,1.59-.48,3.18-.71,4.74a.86.86,0,0,0,0,.32c.74,3.41,1.55,6.54,2.27,5.83a44.79,44.79,0,0,1-.34-4.6c.21.9.39,1.48.51,1.06a19.16,19.16,0,0,0-.42-4,1,1,0,0,1,.06-.48l1.28-3-.55-.78.86-18.29v-.13c-1.31-12.38-3.2-23.25-3.88-41.94a.72.72,0,0,1,.89-.77c.16.05.32-.06.49-.22.45-.45,1.15,0,1.08.7-.67,5.93.79,15.44.56,25.23.13-5.64.7-4.4.9-3L266.49,231a.78.78,0,0,1,.22-.64c.61-.41.54-3.77.79-7.73,0-.36-.13-.78-.43-.87-1.29-.38-.83-15.69-1.36-22.71.65-.49,1.31,1.39,1.16,11,1.45-10.56-2.27-13.64-1-24,0,2.33-.09,3.59.24,4.51-.58-5.45-.12-18.79.45-15.65v2.33c.23-15.51,0-47.21-1.63-49.52.07,0,.28.12.55.41.48.51,1.25,0,1.1-.75l-3.13-15.68a.91.91,0,0,1,0-.17v-8.19a.81.81,0,0,1,.31-.66c.87-.64,1.8-1.26,2.51.23a.66.66,0,0,0,1.25-.37c0-1.67,0-3.54-.09-5.72a.66.66,0,0,0-1.24-.37c-.52.93-1.06,1.1-1.13-.7,1.57-9.45.84-6.56,2.18-18.2-.28,3.52-2.22.11-2.42-5.2a.73.73,0,0,1,.68-.82c.67,0,1.56-.15,1.71,1.32L265,58c.38,3.58,1.75.84,2.39-2.35l0-.36c-.22-1.49.13-13.24-.06-16.76l-.5,6.29a69.18,69.18,0,0,0-1.39-16.64c-.19-1-.39-2.08-.59-3.16-.18-1.25-.36-2.59-.5-3.95a79.81,79.81,0,0,1-.46-8.82.73.73,0,0,1,.68-.79c.27,0,.59-.16.9-.64.66-1,1.3,2.2,1.45-4.14a1.26,1.26,0,0,0-.05-.33c-.16-.43-.37-1-.62-1.54a.63.63,0,0,0-.85-.37c-1.7.87-3.57-1.77-5.22-.08a.69.69,0,0,1-.47.22h-6.32c-.19,0-.7.36-.51.28,5.5-2.29-.43,1.6,8.56-.58a17.7,17.7,0,0,1,2.31,1.15c-2.72-.93,0,0-4.91.39a.6.6,0,0,1-.62-.37c-1-2.24-3.43-2.63-1.72-2.72l.5-.18a.63.63,0,0,1-.5.18l-3.37-.41a.67.67,0,0,0-.71.53c-.5,2.11-.79-2.24-.5.5L255.29,5c.35,3.54-5-3.28-10.72-3.91-1.45-1.4.12,1.18,0,0-.68,1.13-3.88,1.9-4.78,1.33a.58.58,0,0,0-.5,0L237.54,3a.61.61,0,0,1-.42,0c-2.78-1.08-.42,1.9-3.89-1.15a.55.55,0,0,0-.37-.17,4.72,4.72,0,0,0-3.94,3.71c1.28,2.41,1.93-5.48,2-.85H226.4l.19-1.39-.86,0,0,1.35h-4.58c-.46-3,3.5.52,1.89-1.86a4,4,0,0,1-1.23,2.05.66.66,0,0,1-1.11-.51c-.09-.89.24-1.87-1.86-1.56-.5,3.59-6.09-.3-1.41,3-2.93,1-3.12-.74-6.56-.58.71,1.49-.76-2.43-2.68-.75a.64.64,0,0,1-.43.18h-3.52l-.19-.34c-6-.32-9.23-1.95-14.83-2"/></g></g></svg>