<svg xmlns="http://www.w3.org/2000/svg" viewBox="0 0 892.8 138.5"><defs><style>.cls-1{opacity:0.2;}.cls-2{fill:#cb8d2f;}</style></defs><title>Mesa de trabajo 42</title><g id="guia_estilo" data-name="guia estilo"><g class="cls-1"><path class="cls-2" d="M621.49,0c0,.43-1.51.87-4.14,1.29a13,13,0,0,1-1.88.11h-58.8c-13.39-.4-46.4,0-66.15-.61-.63,0-1.27,0-1.81,0-2.41.17-5.42.33-6.8.51a15.27,15.27,0,0,1-1.67.08H404.77c.23-.12.26-.24,0-.37l-9.84.37h-1.16c.35-.18,3.5-.44.67-.59a11.19,11.19,0,0,1-3.39.54c-.39,0-.88,0-1.36,0H374.23l-.87,0c-.23,0-.34,0-.55,0h-13.5c-.46,0-1.05,0-1.86-.07s-1.81.06-2.74.07H19a5.28,5.28,0,0,0-2.24.24V7.3s0,0-.07,0a22.72,22.72,0,0,1-6.63,2c-.7.06-1.15.14-1,.23C13.49,12.43.8,17,8.42,21.49c-1.26,1-2-.87-3.41-.33,2.64,1.18,3.19,2.61,2,5.24l-.65-.3C7,33.51,4.4,36.69,2.67,45l3-.61c-.4,1.78-1.36,2.16-2.12,3,4.62,2.05.26-5,5.35-3.15C2.79,46.6,8.75,56.69,2,58.42c-.11,0-.17.06-.17.09,0,2.65,3.5-.81,3.49,1.86,0,0,0,.05-.08.07l-1.63.62q-.19.07.06.15l2,.58c.11,0,.16.06.15.09C5.39,63.65,3,64.54,1.44,64.61c.19-.44-.45-1.24-.59-1.71-2.25,2.34.76,6.59,0,7.4l1.18-2.65c1.78,7.51-.72,16.68,3.15,23.93L6.65,91c2.66,5.54-1.58,4.44-.35,10.52L6,101.33c.71.61,1.25,22.59,1.59,23.35a5.09,5.09,0,0,1,.36,1.19,8.39,8.39,0,0,1,0,1.61c-.84-1-1.66,0-2.5,1s-1.7,2.07-2.63.58c1.18,3.75,1.77,5,2.43,5.59a11.23,11.23,0,0,0,3.48.17c2.6-.18,6.19-.44,13-.84a16.08,16.08,0,0,1,3,.09l1.23.2a16.77,16.77,0,0,0,3.16.07c2.91-.21,4.76-.37,7.25-.5,1.48-.08,3.24-.15,5.39-.21,1.83,0,4.13-.1,7.16-.14-8.86.46,4.2.82-.71,1.38-1.06.12-.5.32.95.37,21.66.85,33.29-1.13,43.84.15a15.29,15.29,0,0,0,3.81,0c5.08-1.22-23.39-.61-17.33-.94-5.48-.54,9.63-1.24,17.61-1.07s13.82,2.11,34.25,2.08c-2,0-2.17.12-4.2.11,7.18.4,14.08-.45,22.66,0a17.69,17.69,0,0,0,2.8-.07c5.08-.69,11.19.15,12.6-1l-5.82.09c-2.42,0-3.59-.3-1.51-.44,6.44-.42,13.63-.83,23.12-.58,1.8,0,2.3.3.85.42l-1.54.12c-2,.15-.57.48,1.82.43,1.84-.05,3.71-.09,5.64,0,1.15,0,1.76.18,1.31.3-3.57,1-23,.13-33.67,1,5.49.54,21.53-.92,15.81.46,8.22-1.76,20.13.22,34-1.12l-.34.29c-.23.19,1.68.33,3.28.24,2.1-.12,4.59-.24,6.9-.23l-2.63.36c-1.19.16,0,.4,1.89.39,8.77,0,17.17.9,25.79.53-19.55,0-8.93-.7-12.06-1.25-.78-.14-.19-.32,1.27-.36,18.25-.49,16.2,1.13,29.47,1.64,1.91.07,3.92-.15,2.91-.33-.67-.13-.36-.25,1.66-.36,5.55.14,12.78.41,16.65.78.47,0,1.09.07,1.72.06,9.82-.09,8.26-.3,5.78-.55-1.75-.17,0-.48,2.24-.4,4.05.17,7.09-.45,12.26-.8,1.49-.1,3.45,0,3.47.2l0,.2a4.1,4.1,0,0,0,1.84.24c19.22.32,7.05-1.37,21.6-1.14,1.76,0,2.56.25,1.38.39l-1.75.21c-1.44.17.08.44,2.21.39h.47c1.66-.05,3.14.12,2.69.29h0c-.49.19,1.32.36,3,.28,7.7-.34,11.84-.27,19.64-.1,1.43,0,2.75-.08,2.69-.24-.21-.51,4.19-1.1,12.72-1.12,6.09.4-1.24.66,6,.66,2,0,3,.24,1.67.4a41.53,41.53,0,0,1-8.33.14,15.73,15.73,0,0,0-3.13.07c-.53.08-1.15.16-1.67.25-.77.12-.28.29,1,.35,7.51.34,17.54,0,22.4,0-2.05,0-4.5-.08-5.76-.19l21.35-1.07a4.16,4.16,0,0,1,1.57.26,9.52,9.52,0,0,0,3.18.2c1,0,2.11-.1,3.34-.14,1.63-.05,3.21.1,2.84.28-1,.51-2.15,1-9.46,1.23l18.94-.66a17.34,17.34,0,0,1,2.24.07c2.11.22,6.88.52,7.39.74a5.5,5.5,0,0,0,1.64.18c10.81.14,25.53-1.16,39.23-.82a17.4,17.4,0,0,0,2.11-.06c.92-.09,2.38-.17,4.72-.23,13.62.14,25.73.87,41.63.12a18.11,18.11,0,0,1,2.62.06l8.35,1c13-.26-12.79-1.43,8.92-1.85,12.39-.29,8.55.51,9.4,1a12.31,12.31,0,0,0,3.51.14c7.83-.59,20.2-1.53,33.29-.67-1.58.07-3.05.1-4.47.11-2.25,0-2.93.33-1,.44l.29,0c1.49.09,1.56.31.12.41-11.32.76-18.51.52-9.22,1.34,1.45-2.08,37.89-.41,42.83-2.12a14.51,14.51,0,0,1,3.27-.12l4.33.29c-2,0-2.36.1-4.37.08,13.8,1.05,10.25-1.58,28-1.27,3.88.11,7,.27,7.8.44a13.58,13.58,0,0,0,2.74.14l9.57-.38a12.74,12.74,0,0,1,2.52.16,9.12,9.12,0,0,0,2.32.18l15.25-.13-.16.06c3-.34,9.82-.87,13.14-1.1,5.35.32-2.68.24-1.31.51l9.8-.45a12.19,12.19,0,0,1,3.06.16c.67.39-4.78.73-10.59.79-1.65,0-2.51.22-1.62.37,7.84,1.31,9-.35,24.38.08,2.23.06,2.15.4-.1.46l-.86,0c-1.63,0-2.25.25-1.18.39,4.27.54,9.11.62,15,.78,2.25.07,3.84-.23,2.15-.39-5.86-.6-11-1.3-3.28-1.63,3.09.14,7,.22,12.46,0a13.76,13.76,0,0,1,3.07.14c1.42.38,6.13.32,12.06.27,1.36,0,2.5.11,2.42.25l-.21.39c-.1.19,1.77.31,3.32.22,5.08-.28,5.55-.68,9.29-1.06.49,0,1.19-.07,1.84-.06,9.16.15,11.17.91,13.46,1.56,16,.17-10.71-1.26,7.5-1.47h.84c13.17.37,22.54,0,38.39-.66a30.91,30.91,0,0,1,3.75.26,14.36,14.36,0,0,0,3.59.11c.92-.09,1.9-.17,3-.26a10.55,10.55,0,0,1,2.1.12,16.21,16.21,0,0,0,3.71.06,5.34,5.34,0,0,0,2-.45c.7-.26,2.14-.5,9.36-.64.68-.45,5.67-.29,13.5,0a9,9,0,0,0,3-.21,10.61,10.61,0,0,0,2-3.64,4.42,4.42,0,0,0-1.19-4.58,2.05,2.05,0,0,1,1.9-.17,4.36,4.36,0,0,0,2.21.42,1.79,1.79,0,0,0-.3-.55l-.28-.39-.5-.71c-.31-.43-.57-22.07-.8-22.4l-1.18-1.58a31.37,31.37,0,0,0-3.9-3.59s0,0,0,0l2-2.44-3.28-.2c-2-.63-4-2.37-5.8-4l-.64.37v-.93l.64.56.76-.43c.06,0,0-.07,0-.1l-1.29-.55c-.05,0-.07,0-.07-.06v-2.1a9.87,9.87,0,0,1,3.93,1.16c.06,0,.07.07,0,.1L879.69,90c-.06,0,0,.06,0,.1,2.47,1,5.19,2,7.56,1.78a2.89,2.89,0,0,1-1.11-1.41,2.84,2.84,0,0,0,1.7.33c.41-.14-.42-.56-1.41-1.22-.08-.05,0-.1.2-.15l4.26-.91-1.82-.23L892,82.64s0,0,0,0c-4.36-3.79-10.64-7.12-12.92-12.85-.07-.16,1.44-.27,3-.23a14.56,14.56,0,0,0,1.61-.07c1.51-.14,3.86,0,3.61.21-2.23,1.82,2.64,4.73,1.86,7.74.44-1.73,2.34-1.35,3-.91l-3.72-5.72c0-.07.14-.15.74-.19,2-.13,1.8-1.16,2.6-2.37.08-.11-.4-.24-1.42-.27-4.29-.11-2.75-4.8-4.52-6.95,2.17-.15,4.37.42,3.85,3.35,4.85-3.23-7.56-4.18-3.44-7.35.05.72-.28,1.1.82,1.38-1.92-1.67-.4-5.75,1.48-4.79l0,.71c.76-4.75.05-14.46-5.42-15.17.21,0,.91,0,1.8.13,1.61.15,4.18,0,3.69-.23l-10.42-4.81s-.06,0-.06-.05V31.65c0-.08.39-.15,1-.2a35.72,35.72,0,0,1,8.37.07c1.1.21,4.16.13,4.19-.11a3.65,3.65,0,0,0-.3-1.75c-.1-.23-2.95-.31-4.14-.12-1.75.29-3.53.34-3.76-.21,5.23-2.9,2.8-2,7.26-5.58-.94,1.08-7.41,0-8.09-1.59-.06-.14,1-.26,2.28-.25,2.22,0,5.19-.05,5.71.4l-7.23-4.55c1.26,1.1,5.81.26,8-.72l-.16-.11c-.73-.45.42-4-.22-5.13l-1.67,1.93c.54-2.57-2-3.84-4.63-5.1l-1.94-1a13.74,13.74,0,0,1-1.7-1.21,3.72,3.72,0,0,1-1.53-2.7,5.28,5.28,0,0,1,2.28-.24,21.37,21.37,0,0,0,3-.2C887,3,889.17,4,889.65,2c0,0,0-.07-.17-.1-.53-.13-1.23-.3-2.06-.47a14.38,14.38,0,0,0-2.83-.12c-5.65.27-11.89-.54-17.4,0-.44,0-1,.07-1.56.07H844.57c-.66,0-2.34.11-1.72.08,18.34-.7-1.44.49,28.55-.18.51,0,8.2.37,7.7.36-9.08-.29,0,0-16.37.12a13.26,13.26,0,0,1-2.08-.12c-3.23-.68-11.41-.8-5.72-.83l1.68-.06a14.46,14.46,0,0,1-1.68.06L843.69.7a10,10,0,0,0-2.35.17c-1.67.64-2.64-.69-1.69.15L851,1.55c1.17,1.08-16.8-1-35.74-1.2-4.82-.43.4.36,0,0-2.27.34-12.94.58-15.93.41-.51,0-1.11,0-1.66,0l-5.84.19c-.45,0-1,0-1.4,0-9.28-.33-1.41.59-13-.35-.36,0-.8,0-1.25,0-4.53,0-12.42.53-13.13,1.14,4.27.74,6.44-1.68,6.5-.26H754.71l.63-.43h-2.87l.1.42H737.33C735.8.48,749,1.56,743.61.83a18.18,18.18,0,0,1-4.09.62,11.89,11.89,0,0,1-3.7-.15c-.29-.28.79-.57-6.19-.48-1.67,1.1-20.31-.09-4.72.93-9.77.31-10.38-.23-21.85-.18a45.54,45.54,0,0,0-8.95-.23c-.41,0-.9.06-1.42.06H680.93l-.63-.11c-20-.1-30.76-.59-49.42-.6"/></g></g></svg>