<svg xmlns="http://www.w3.org/2000/svg" viewBox="0 0 67.97 68.85"><defs><style>.cls-1{fill:#936b43;}</style></defs><title>Elemento 2</title><g id="guia_estilo" data-name="guia estilo"><path class="cls-1" d="M1.62,63.18H33.34a1.62,1.62,0,0,0,0-3.23H3.24V55.09c0-4.61,9.62-8,12.94-8.9,3.64-.89,7.28-3.23,7.28-6.47v-4a11.83,11.83,0,0,0,5,1.13h.41a12.25,12.25,0,0,0,4.2-.81v3.64a4.81,4.81,0,0,0,1.46,3.4,1.65,1.65,0,0,0,1.21.48,2,2,0,0,0,1.14-.4A1.66,1.66,0,0,0,37,40.93a1.79,1.79,0,0,1-.65-1.21V34.14a11.77,11.77,0,0,0,4-8.34A4.55,4.55,0,0,0,43,21.6v-2a4.77,4.77,0,0,0-2.5-4.12A20.44,20.44,0,0,0,41,6.79C39.32.15,27.59-.49,22.49.23A6.43,6.43,0,0,0,18,2.66a7.41,7.41,0,0,0-.81,1.78,4.58,4.58,0,0,0-2.42,1.78c-2.11,2.35-.73,6.56,1.13,10a4.65,4.65,0,0,0-1.46,3.31v2a4.55,4.55,0,0,0,2.67,4.2,11.38,11.38,0,0,0,3.16,7.53v6.39c0,1.21-2.19,2.75-4.78,3.4A39.3,39.3,0,0,0,8,45.87q-8,3.89-8,9.22v6.48A1.62,1.62,0,0,0,1.62,63.18ZM18.85,23.05a1.33,1.33,0,0,1-1.21-1.37v-2a1.42,1.42,0,0,1,.89-1.29,1.47,1.47,0,0,0,1-1A1.66,1.66,0,0,0,19.34,16c-2.43-4-2.91-6.87-2.27-7.6a.93.93,0,0,0,.25-.33c.08-.08.32-.48,1.29-.48A1.58,1.58,0,0,0,19.9,7a1.56,1.56,0,0,0,.33-1.29,1.46,1.46,0,0,1,.32-1A3.41,3.41,0,0,1,22.9,3.63,18.26,18.26,0,0,1,26,3.47c4.78,0,11,1.22,11.82,4.37.48,1.94.16,4.86-.81,8.58a1.39,1.39,0,0,0,.24,1.37,1.52,1.52,0,0,0,1.21.65,1.41,1.41,0,0,1,1.3,1.38v2a1.39,1.39,0,0,1-1.22,1.37,1.65,1.65,0,0,0-1.45,1.62v.81a8.29,8.29,0,0,1-8.26,8.25h-.4a8.57,8.57,0,0,1-8.17-8.41v-.81A1.59,1.59,0,0,0,18.85,23.05Z"/><path class="cls-1" d="M52.59,38.1A15.38,15.38,0,1,0,68,53.47,15.37,15.37,0,0,0,52.59,38.1Zm0,27.51A12.14,12.14,0,1,1,64.73,53.47,12.12,12.12,0,0,1,52.59,65.61Z"/><path class="cls-1" d="M51.79,44.3a2,2,0,0,0-1.74,2v4.87H45a2,2,0,0,0,.19,3.9h4.87v4.88a2,2,0,1,0,3.9,0V55.05h4.88a2,2,0,1,0,0-3.9H54V46.28A2,2,0,0,0,51.79,44.3Z"/></g></svg>
