<svg xmlns="http://www.w3.org/2000/svg" viewBox="0 0 88.05 65.35"><defs><style>.cls-1{fill:#d36522;}</style></defs><title>Elemento 3</title><g id="guia_estilo" data-name="guia estilo"><path class="cls-1" d="M13.19,17h46.3a1.5,1.5,0,1,0,0-3H13.19a1.5,1.5,0,1,0,0,3Z"/><path class="cls-1" d="M61,26.75a1.5,1.5,0,0,0-1.5-1.5H13.19a1.5,1.5,0,1,0,0,3h46.3A1.5,1.5,0,0,0,61,26.75Z"/><path class="cls-1" d="M36.33,36.5H13.19a1.5,1.5,0,1,0,0,3H36.33a1.5,1.5,0,0,0,0-3Z"/><path class="cls-1" d="M72.67,31.61V7.26A7.27,7.27,0,0,0,65.41,0H7.26A7.27,7.27,0,0,0,0,7.26V58.74c0,3.56,2.1,5.15,4.19,5.15a5.33,5.33,0,0,0,3.9-2l5.25-5.66a8.27,8.27,0,0,1,4.95-2.16h37a17,17,0,0,0,15.9,11.25h.37A16.9,16.9,0,0,0,88.05,48.08,17,17,0,0,0,72.67,31.61ZM54.47,51.1H18.29a11.2,11.2,0,0,0-7.15,3.11L5.89,59.88a2.58,2.58,0,0,1-1.7,1c-.72,0-1.19-.74-1.19-2.15V7.26A4.27,4.27,0,0,1,7.25,3H65.41a4.28,4.28,0,0,1,4.26,4.26V31.62A16.87,16.87,0,0,0,54.24,48.81,17.24,17.24,0,0,0,54.47,51.1Zm17,11.24h-.31A13.8,13.8,0,0,1,57.51,51.1a13.12,13.12,0,0,1-.26-2.36A13.91,13.91,0,0,1,69.67,34.62c.39,0,.78-.07,1.18-.08h.3c.51,0,1,0,1.52.08a13.9,13.9,0,0,1-1.22,27.72Z"/><path class="cls-1" d="M79.26,46.45H73.14V40.32a2,2,0,0,0-4-.13c0,.05,0,.09,0,.14v6.12H63a2,2,0,0,0,0,4h6.12v6.12a2,2,0,0,0,4,0V50.44h6.12a2,2,0,1,0,0-4Z"/></g></svg>