<svg xmlns="http://www.w3.org/2000/svg" viewBox="0 0 13.94 14.26"><defs><style>.cls-1{fill:#fff;}</style></defs><title>ico-descarga</title><g id="Capa_2" data-name="Capa 2"><g id="Layer_1" data-name="Layer 1"><path class="cls-1" d="M6.77,9.89a.26.26,0,0,0,.41,0l3.21-3.84a.22.22,0,0,0-.2-.34H8.55a.18.18,0,0,1-.17-.18V.17A.18.18,0,0,0,8.21,0H5.76a.18.18,0,0,0-.18.17V5.53a.17.17,0,0,1-.17.18H3.76a.22.22,0,0,0-.2.34Z"/><path class="cls-1" d="M13.66,8.56h-.84a.28.28,0,0,0-.28.28v3.71a.28.28,0,0,1-.28.29H1.67a.29.29,0,0,1-.28-.29V8.84a.28.28,0,0,0-.28-.28H.28A.27.27,0,0,0,0,8.84v4a1.4,1.4,0,0,0,1.39,1.42H12.55a1.4,1.4,0,0,0,1.39-1.42v-4A.27.27,0,0,0,13.66,8.56Z"/></g></g></svg>