<svg xmlns="http://www.w3.org/2000/svg" viewBox="0 0 10.63 331.64"><defs><style>.cls-1{fill:#4a3529;}</style></defs><title>Mesa de trabajo 43</title><g id="guia_estilo" data-name="guia estilo"><polygon class="cls-1" points="0 314.65 5.31 331.64 10.63 314.65 5.31 308.89 0 314.65"/><polygon class="cls-1" points="0 16.98 5.31 0 10.63 16.98 5.31 22.75 0 16.98"/><rect class="cls-1" x="3.55" y="175.09" width="0.94" height="51.45"/><rect class="cls-1" x="6.64" y="175.09" width="0.45" height="51.45"/><path class="cls-1" d="M5.56,176.78a.51.51,0,0,0-.53.48.5.5,0,0,0,.53.47.51.51,0,0,0,.54-.47A.51.51,0,0,0,5.56,176.78Z"/><path class="cls-1" d="M5.56,179.65a.51.51,0,0,0-.53.48.5.5,0,0,0,.53.47.51.51,0,0,0,.54-.47A.51.51,0,0,0,5.56,179.65Z"/><path class="cls-1" d="M5.56,182.52a.48.48,0,1,0,.54.48A.51.51,0,0,0,5.56,182.52Z"/><path class="cls-1" d="M5.56,185.4a.5.5,0,0,0-.53.47.54.54,0,1,0,.53-.47Z"/><path class="cls-1" d="M5.56,188.27a.5.5,0,0,0-.53.47.54.54,0,1,0,.53-.47Z"/><path class="cls-1" d="M5.56,191.14a.5.5,0,0,0-.53.47.54.54,0,1,0,.53-.47Z"/><path class="cls-1" d="M5.56,194a.5.5,0,0,0-.53.47.54.54,0,1,0,.53-.47Z"/><path class="cls-1" d="M5.56,196.88a.48.48,0,1,0,0,1,.48.48,0,1,0,0-1Z"/><path class="cls-1" d="M5.56,199.75a.48.48,0,1,0,0,.95.48.48,0,1,0,0-.95Z"/><path class="cls-1" d="M5.56,202.62a.48.48,0,1,0,0,.95.48.48,0,1,0,0-.95Z"/><path class="cls-1" d="M5.56,205.49a.48.48,0,1,0,0,.95.48.48,0,1,0,0-.95Z"/><path class="cls-1" d="M5.56,208.36a.51.51,0,0,0-.53.48.5.5,0,0,0,.53.47.51.51,0,0,0,.54-.47A.51.51,0,0,0,5.56,208.36Z"/><path class="cls-1" d="M5.56,211.23a.51.51,0,0,0-.53.48.5.5,0,0,0,.53.47.51.51,0,0,0,.54-.47A.51.51,0,0,0,5.56,211.23Z"/><path class="cls-1" d="M5.56,214.1a.51.51,0,0,0-.53.48.5.5,0,0,0,.53.47.51.51,0,0,0,.54-.47A.51.51,0,0,0,5.56,214.1Z"/><path class="cls-1" d="M5.56,217a.51.51,0,0,0-.53.48.5.5,0,0,0,.53.47.51.51,0,0,0,.54-.47A.51.51,0,0,0,5.56,217Z"/><path class="cls-1" d="M5.56,219.84a.51.51,0,0,0-.53.48.5.5,0,0,0,.53.47.51.51,0,0,0,.54-.47A.51.51,0,0,0,5.56,219.84Z"/><path class="cls-1" d="M5.56,222.72a.5.5,0,0,0-.53.47.54.54,0,1,0,.53-.47Z"/><path class="cls-1" d="M5.56,225.59a.5.5,0,0,0-.53.47.54.54,0,1,0,.53-.47Z"/><rect class="cls-1" x="3.55" y="226.54" width="0.94" height="51.45"/><rect class="cls-1" x="6.64" y="226.54" width="0.45" height="51.45"/><path class="cls-1" d="M5.56,228.23a.51.51,0,0,0-.53.48.5.5,0,0,0,.53.47.51.51,0,0,0,.54-.47A.51.51,0,0,0,5.56,228.23Z"/><path class="cls-1" d="M5.56,231.1a.51.51,0,0,0-.53.48.5.5,0,0,0,.53.47.51.51,0,0,0,.54-.47A.51.51,0,0,0,5.56,231.1Z"/><path class="cls-1" d="M5.56,234a.51.51,0,0,0-.53.48.5.5,0,0,0,.53.47.51.51,0,0,0,.54-.47A.51.51,0,0,0,5.56,234Z"/><path class="cls-1" d="M5.56,236.85a.47.47,0,1,0,0,.94.47.47,0,1,0,0-.94Z"/><path class="cls-1" d="M5.56,239.72a.5.5,0,0,0-.53.47.54.54,0,1,0,.53-.47Z"/><path class="cls-1" d="M5.56,242.59a.5.5,0,0,0-.53.47.54.54,0,1,0,.53-.47Z"/><path class="cls-1" d="M5.56,245.46a.5.5,0,0,0-.53.47.54.54,0,1,0,.53-.47Z"/><path class="cls-1" d="M5.56,248.33a.5.5,0,0,0-.53.47.54.54,0,1,0,.53-.47Z"/><path class="cls-1" d="M5.56,251.2a.5.5,0,0,0-.53.47.54.54,0,1,0,.53-.47Z"/><path class="cls-1" d="M5.56,254.07a.48.48,0,1,0,0,1,.48.48,0,1,0,0-1Z"/><path class="cls-1" d="M5.56,256.94a.48.48,0,1,0,0,.95.48.48,0,1,0,0-.95Z"/><path class="cls-1" d="M5.56,259.81a.51.51,0,0,0-.53.48.5.5,0,0,0,.53.47.51.51,0,0,0,.54-.47A.51.51,0,0,0,5.56,259.81Z"/><path class="cls-1" d="M5.56,262.68a.51.51,0,0,0-.53.48.5.5,0,0,0,.53.47.51.51,0,0,0,.54-.47A.51.51,0,0,0,5.56,262.68Z"/><path class="cls-1" d="M5.56,265.55A.51.51,0,0,0,5,266a.5.5,0,0,0,.53.47A.51.51,0,0,0,6.1,266,.51.51,0,0,0,5.56,265.55Z"/><path class="cls-1" d="M5.56,268.42a.48.48,0,1,0,0,.95.48.48,0,1,0,0-.95Z"/><path class="cls-1" d="M5.56,271.29a.51.51,0,0,0-.53.48.5.5,0,0,0,.53.47.51.51,0,0,0,.54-.47A.51.51,0,0,0,5.56,271.29Z"/><path class="cls-1" d="M5.56,274.16a.51.51,0,0,0-.53.48.5.5,0,0,0,.53.47.51.51,0,0,0,.54-.47A.51.51,0,0,0,5.56,274.16Z"/><path class="cls-1" d="M5.56,277a.48.48,0,1,0,.54.48A.51.51,0,0,0,5.56,277Z"/><rect class="cls-1" x="3.55" y="266.62" width="0.94" height="51.45"/><rect class="cls-1" x="6.64" y="266.62" width="0.45" height="51.45"/><path class="cls-1" d="M5.56,268.32a.5.5,0,0,0-.53.47.54.54,0,1,0,.53-.47Z"/><path class="cls-1" d="M5.56,271.19a.48.48,0,1,0,0,.95.48.48,0,1,0,0-.95Z"/><path class="cls-1" d="M5.56,274.06a.48.48,0,1,0,0,.95.48.48,0,1,0,0-.95Z"/><path class="cls-1" d="M5.56,276.93a.48.48,0,1,0,0,.95.48.48,0,1,0,0-.95Z"/><path class="cls-1" d="M5.56,279.8a.48.48,0,1,0,0,.95.48.48,0,1,0,0-.95Z"/><path class="cls-1" d="M5.56,282.67a.48.48,0,1,0,0,.95.48.48,0,1,0,0-.95Z"/><path class="cls-1" d="M5.56,285.54A.51.51,0,0,0,5,286a.5.5,0,0,0,.53.47A.51.51,0,0,0,6.1,286,.51.51,0,0,0,5.56,285.54Z"/><path class="cls-1" d="M5.56,288.41a.51.51,0,0,0-.53.48.5.5,0,0,0,.53.47.51.51,0,0,0,.54-.47A.51.51,0,0,0,5.56,288.41Z"/><path class="cls-1" d="M5.56,291.28a.51.51,0,0,0-.53.48.5.5,0,0,0,.53.47.51.51,0,0,0,.54-.47A.51.51,0,0,0,5.56,291.28Z"/><path class="cls-1" d="M5.56,294.15a.48.48,0,1,0,.54.48A.51.51,0,0,0,5.56,294.15Z"/><path class="cls-1" d="M5.56,297a.5.5,0,0,0-.53.47.54.54,0,1,0,.53-.47Z"/><path class="cls-1" d="M5.56,299.9a.5.5,0,0,0-.53.47.54.54,0,1,0,.53-.47Z"/><path class="cls-1" d="M5.56,302.77a.5.5,0,0,0-.53.47.54.54,0,1,0,.53-.47Z"/><path class="cls-1" d="M5.56,305.64a.5.5,0,0,0-.53.47.54.54,0,1,0,.53-.47Z"/><path class="cls-1" d="M5.56,308.51A.5.5,0,0,0,5,309a.54.54,0,1,0,.53-.47Z"/><path class="cls-1" d="M5.56,311.38a.48.48,0,1,0,0,.95.48.48,0,1,0,0-.95Z"/><path class="cls-1" d="M5.56,314.25a.48.48,0,1,0,0,.95.48.48,0,1,0,0-.95Z"/><path class="cls-1" d="M5.56,317.12a.48.48,0,1,0,0,.95.48.48,0,1,0,0-.95Z"/><rect class="cls-1" x="3.55" y="123.65" width="0.94" height="51.44"/><rect class="cls-1" x="6.64" y="123.65" width="0.45" height="51.44"/><path class="cls-1" d="M5.56,125.34a.48.48,0,1,0,0,1,.48.48,0,1,0,0-1Z"/><path class="cls-1" d="M5.56,128.21a.48.48,0,1,0,0,.95.48.48,0,1,0,0-.95Z"/><path class="cls-1" d="M5.56,131.08a.48.48,0,1,0,0,.95.48.48,0,1,0,0-.95Z"/><path class="cls-1" d="M5.56,134a.48.48,0,1,0,0,1,.48.48,0,1,0,0-1Z"/><path class="cls-1" d="M5.56,136.82a.48.48,0,1,0,0,1,.48.48,0,1,0,0-1Z"/><path class="cls-1" d="M5.56,139.69a.48.48,0,1,0,0,.95.48.48,0,1,0,0-.95Z"/><path class="cls-1" d="M5.56,142.56a.48.48,0,1,0,0,.95.48.48,0,1,0,0-.95Z"/><path class="cls-1" d="M5.56,145.43a.48.48,0,1,0,0,.95.48.48,0,1,0,0-.95Z"/><path class="cls-1" d="M5.56,148.3a.48.48,0,1,0,0,.95.48.48,0,1,0,0-.95Z"/><path class="cls-1" d="M5.56,151.17a.48.48,0,1,0,0,1,.48.48,0,1,0,0-1Z"/><path class="cls-1" d="M5.56,154a.51.51,0,0,0-.53.48.5.5,0,0,0,.53.47.51.51,0,0,0,.54-.47A.51.51,0,0,0,5.56,154Z"/><path class="cls-1" d="M5.56,156.91a.51.51,0,0,0-.53.48.5.5,0,0,0,.53.47.51.51,0,0,0,.54-.47A.51.51,0,0,0,5.56,156.91Z"/><path class="cls-1" d="M5.56,159.78a.51.51,0,0,0-.53.48.5.5,0,0,0,.53.47.51.51,0,0,0,.54-.47A.51.51,0,0,0,5.56,159.78Z"/><path class="cls-1" d="M5.56,162.66a.47.47,0,1,0,0,.94.47.47,0,1,0,0-.94Z"/><path class="cls-1" d="M5.56,165.52A.51.51,0,0,0,5,166a.5.5,0,0,0,.53.47A.5.5,0,0,0,6.1,166,.51.51,0,0,0,5.56,165.52Z"/><path class="cls-1" d="M5.56,168.4a.5.5,0,0,0-.53.47.54.54,0,1,0,.53-.47Z"/><path class="cls-1" d="M5.56,171.27a.48.48,0,1,0,0,.95.48.48,0,1,0,0-.95Z"/><path class="cls-1" d="M5.56,174.14a.48.48,0,1,0,0,1,.48.48,0,1,0,0-1Z"/><rect class="cls-1" x="3.55" y="20.74" width="0.94" height="51.45"/><rect class="cls-1" x="6.64" y="20.74" width="0.45" height="51.45"/><path class="cls-1" d="M5.56,22.44a.48.48,0,1,0,0,.95.48.48,0,1,0,0-.95Z"/><path class="cls-1" d="M5.56,25.31a.48.48,0,1,0,0,1,.48.48,0,1,0,0-1Z"/><path class="cls-1" d="M5.56,28.18a.48.48,0,1,0,0,.95.48.48,0,1,0,0-.95Z"/><path class="cls-1" d="M5.56,31.05a.48.48,0,1,0,0,.95.48.48,0,1,0,0-.95Z"/><path class="cls-1" d="M5.56,33.92a.48.48,0,1,0,0,.95.48.48,0,1,0,0-.95Z"/><path class="cls-1" d="M5.56,36.79a.51.51,0,0,0-.53.47.51.51,0,0,0,.53.48.51.51,0,0,0,.54-.48A.51.51,0,0,0,5.56,36.79Z"/><path class="cls-1" d="M5.56,39.66a.51.51,0,0,0-.53.48.5.5,0,0,0,.53.47.51.51,0,0,0,.54-.47A.51.51,0,0,0,5.56,39.66Z"/><path class="cls-1" d="M5.56,42.53a.48.48,0,1,0,0,.95.48.48,0,1,0,0-.95Z"/><path class="cls-1" d="M5.56,45.4a.48.48,0,1,0,.54.48A.51.51,0,0,0,5.56,45.4Z"/><path class="cls-1" d="M5.56,48.27a.51.51,0,0,0-.53.48.5.5,0,0,0,.53.47.5.5,0,0,0,.54-.47A.51.51,0,0,0,5.56,48.27Z"/><path class="cls-1" d="M5.56,51.14a.51.51,0,0,0-.53.48.5.5,0,0,0,.53.47.5.5,0,0,0,.54-.47A.51.51,0,0,0,5.56,51.14Z"/><path class="cls-1" d="M5.56,54a.48.48,0,1,0,0,.95.48.48,0,1,0,0-.95Z"/><path class="cls-1" d="M5.56,56.88a.51.51,0,0,0-.53.48.51.51,0,0,0,.53.48.51.51,0,0,0,.54-.48A.51.51,0,0,0,5.56,56.88Z"/><path class="cls-1" d="M5.56,59.75a.51.51,0,0,0-.53.48.51.51,0,0,0,.53.48.51.51,0,0,0,.54-.48A.51.51,0,0,0,5.56,59.75Z"/><path class="cls-1" d="M5.56,62.63a.48.48,0,1,0,0,.95.48.48,0,1,0,0-.95Z"/><path class="cls-1" d="M5.56,65.5a.48.48,0,1,0,0,1,.48.48,0,1,0,0-1Z"/><path class="cls-1" d="M5.56,68.37a.48.48,0,1,0,0,.95.48.48,0,1,0,0-.95Z"/><path class="cls-1" d="M5.56,71.24a.48.48,0,1,0,0,1,.48.48,0,1,0,0-1Z"/><rect class="cls-1" x="3.57" y="72.19" width="0.94" height="51.46"/><rect class="cls-1" x="6.67" y="72.19" width="0.45" height="51.46"/><path class="cls-1" d="M5.59,73.89a.51.51,0,0,0-.53.48.51.51,0,0,0,.53.47.5.5,0,0,0,.53-.47A.5.5,0,0,0,5.59,73.89Z"/><path class="cls-1" d="M5.59,76.76a.5.5,0,0,0-.53.47.51.51,0,0,0,.53.48.51.51,0,0,0,.53-.48A.5.5,0,0,0,5.59,76.76Z"/><path class="cls-1" d="M5.59,79.63a.5.5,0,0,0-.53.47.51.51,0,0,0,.53.48.51.51,0,0,0,.53-.48A.5.5,0,0,0,5.59,79.63Z"/><path class="cls-1" d="M5.59,82.5a.5.5,0,0,0-.53.47.51.51,0,0,0,.53.48A.51.51,0,0,0,6.12,83,.5.5,0,0,0,5.59,82.5Z"/><path class="cls-1" d="M5.59,85.37a.48.48,0,1,0,0,.95.48.48,0,1,0,0-.95Z"/><path class="cls-1" d="M5.59,88.24a.48.48,0,1,0,0,1,.48.48,0,1,0,0-1Z"/><path class="cls-1" d="M5.59,91.12a.47.47,0,1,0,0,.94.47.47,0,1,0,0-.94Z"/><path class="cls-1" d="M5.59,94a.48.48,0,1,0,0,1,.48.48,0,1,0,0-1Z"/><path class="cls-1" d="M5.59,96.85a.48.48,0,1,0,0,1,.48.48,0,1,0,0-1Z"/><path class="cls-1" d="M5.59,99.72a.51.51,0,0,0-.53.49.5.5,0,0,0,.53.47.5.5,0,0,0,.53-.47A.51.51,0,0,0,5.59,99.72Z"/><path class="cls-1" d="M5.59,102.59a.51.51,0,0,0-.53.48.51.51,0,0,0,.53.48.5.5,0,0,0,.53-.48A.51.51,0,0,0,5.59,102.59Z"/><path class="cls-1" d="M5.59,105.47a.5.5,0,0,0-.53.47.51.51,0,0,0,.53.48.51.51,0,0,0,.53-.48A.5.5,0,0,0,5.59,105.47Z"/><path class="cls-1" d="M5.59,108.34a.48.48,0,1,0,0,1,.48.48,0,1,0,0-1Z"/><path class="cls-1" d="M5.59,111.21a.51.51,0,0,0-.53.48.51.51,0,0,0,.53.47.5.5,0,0,0,.53-.47A.5.5,0,0,0,5.59,111.21Z"/><path class="cls-1" d="M5.59,114.08a.51.51,0,0,0-.53.48.51.51,0,0,0,.53.47.5.5,0,0,0,.53-.47A.5.5,0,0,0,5.59,114.08Z"/><path class="cls-1" d="M5.59,117a.48.48,0,1,0,0,1,.48.48,0,1,0,0-1Z"/><path class="cls-1" d="M5.59,119.82a.48.48,0,1,0,0,1,.48.48,0,1,0,0-1Z"/><path class="cls-1" d="M5.59,122.69a.51.51,0,0,0-.53.48.51.51,0,0,0,.53.48.51.51,0,0,0,.53-.48A.5.5,0,0,0,5.59,122.69Z"/></g></svg>