<svg xmlns="http://www.w3.org/2000/svg" viewBox="0 0 76.09 71.72"><defs><style>.cls-1{fill:#d36522;}</style></defs><title>Elemento 4</title><g id="guia_estilo" data-name="guia estilo"><path class="cls-1" d="M66.7,51.63h-3v-3a1.82,1.82,0,0,0-3.64,0v3h-3a1.82,1.82,0,0,0,0,3.64h3v3a1.82,1.82,0,1,0,3.64,0v-3h3a1.82,1.82,0,0,0,0-3.64Z"/><path class="cls-1" d="M63.43,39.4V18.51a1.57,1.57,0,0,0-.13-1.23,1.6,1.6,0,0,0-.79-.69L32.53.2A1.6,1.6,0,0,0,31,.2L.94,16.61a1.55,1.55,0,0,0-.74.67,1.57,1.57,0,0,0-.13,1.23V53.66a1.61,1.61,0,0,0,.84,1.42L31,71.52H31a1.53,1.53,0,0,0,.71.19,1.57,1.57,0,0,0,.71-.19h.07l17.86-9.77a14.18,14.18,0,1,0,13-22.35Zm-33.3,28L3.3,52.7V20.81L30.13,35.45Zm1.62-34.73L5,18.07,31.75,3.46,58.47,18.07Zm1.62,34.73V35.45L60.2,20.81v18.6A14.13,14.13,0,0,0,48.78,58.94ZM61.88,64A10.57,10.57,0,1,1,72.44,53.45,10.58,10.58,0,0,1,61.88,64Z"/></g></svg>