<svg xmlns="http://www.w3.org/2000/svg" viewBox="0 0 63.99 65.03"><defs><style>.cls-1{fill:#f06522;}.cls-2{fill:#fff;}</style></defs><title>Mesa de trabajo 48</title><g id="guia_estilo" data-name="guia estilo"><path class="cls-1" d="M34.17,1.07c.13,0,.19-.05.2-.1S34.14,1,34.17,1.07Z"/><path class="cls-1" d="M31.2.45l.17,0C31.31.44,31.24.41,31.2.45Z"/><path class="cls-1" d="M50.14,7l-.28-.41C49.74,6.75,50,6.87,50.14,7Z"/><path class="cls-1" d="M56,11.87l.09.1a1.2,1.2,0,0,0,.24,0Z"/><path class="cls-1" d="M58.86,16.74a.44.44,0,0,1,.41.1,1,1,0,0,0,.23-.21C59.45,16.51,59.05,16.69,58.86,16.74Z"/><path class="cls-1" d="M62.65,32.41l0,.09.24,0Z"/><path class="cls-1" d="M25.61.51h0C25.77.44,25.69.46,25.61.51Z"/><path class="cls-1" d="M.59,39.23c.23-.63.71.79.92-.13C1.36,39.22.66,38.48.59,39.23Z"/><path class="cls-1" d="M14.12,5.8a.35.35,0,0,0-.21-.08A.42.42,0,0,0,14.12,5.8Z"/><path class="cls-1" d="M10.47,9.28c-.11.07-.19.05-.27.21h.07C10.28,9.41,10.32,9.33,10.47,9.28Z"/><path class="cls-1" d="M7.06,13l.13,0,.08-.14Z"/><path class="cls-1" d="M64,33.73c-.06-.54-.63-1.5-.8-1.3,0,.21-.18.52-.42.53l-.1-.46-.14,0a.17.17,0,0,0,0-.07A30.13,30.13,0,0,0,62,27l.13,0L62,26.91c0-.23-.07-.46-.11-.68a.25.25,0,0,1,.24.17c.21-.57-.33-.4-.09-.9,0-.06.08-.05.11,0l-.31-.44c.16.06.42-.19.41.13.13-1-.83-1.29-.45-1.76l.06.07c-.43-.85-.48-.43-.83-.45-.06-.19-.13-.37-.2-.55l.6-.67-.48.05c0-.13-.08-.38.11-.41-.47-.34-.17.15-.54,0,.21-.76-.82-1.5-.22-1.92-.42-.06,0,.65-.5.15.64-.51-.46-.63-.37-1.3.44,0,.49.56.56-.12-.76,0-.35-1.09-.74-1.43-.5.25-.75-.79-1.33-1.38.22-.08-.62-1.42-.93-2.15l.09,0c-.55.23-.89-.49-1.37-.82a.62.62,0,0,1,.76-.07c-.11-.15-.24-.27-.36-.41a.94.94,0,0,1-.69-.25l.41-.18c-.52-.52-1.32-.76-1.78-1.59-.21.17-.25.68-.53.86-.11-.12-.24-.21-.35-.32a.31.31,0,0,1,.35-.08c-.08,0-.34-.07-.4-.25h.53c-.19-.39-.36.07-.58-.18.21-.21,0-.32.16-.46.08,0,.13.28.31.28a1.6,1.6,0,0,1-.42-1,.34.34,0,0,1-.5.15c-.55-.47,0-.44-.16-.85-.25,0-.49-.41-.78-.06-.17-.13-.07-.32-.06-.46-.42-.07-1.43-1-1.37-.36l0,.08-.06,0c-1.18-.39-1.95-1.57-3.07-2l.08-.13a6.37,6.37,0,0,0-2.07-.56C45,4.45,44.87,4.07,45,4a2.23,2.23,0,0,1-1.3-.53c.62,0-.09-.28.61,0-.62-.37-.7-.65-1.56-.53.38-.27-.35-.65-.71-.66l.38.44a4.62,4.62,0,0,1-1-.37l.33-.43c-1.3-1-2.84.3-3.72-.9-.46.29.75.36.32.72-.65-.17-1.23-1-1.45-1C36,.27,36,1.26,35,1c.11.19.17.68-.55.82-.65-.1-.77-.81-.34-.93.17,0,.24.05.23.11.22,0,.52-.11.26-.32l-.1.17c-.32-.2-1.27-.23-1-.51-.53.14-.23.28.14.4A9,9,0,0,0,31.37.48c.15.09.28.3.14.3-1.32-.16-.57.38-1.44.5-.52-.25.14-.67-.74-.39-.57-.16-.17-.47.05-.63-.8.36-1.57,0-2.07-.05L27.73,0a1.89,1.89,0,0,1-.68.19l.3.32c-.26,0-.48,0-.5-.14-.22.27.29.57-.16,1-.37-.12-1,.34-1.19-.08,1.09,0-.21-.47.67-.69a1.22,1.22,0,0,1-.64.09c-.05,0,0-.11.08-.14-1.11-.18-.36.65-1.39.89.07-.29-.37-.43-.52-.33.42-.11.31.39,0,.68-.72,0-.67.34-1,.4h.42c-.06.29-.39.34-.8.59-.1-.19.35-.28.17-.32-.33.63-1.27-.06-1.85.5-.38-.06-.21-.47-.54-.48-.65.6-1,0-1.66.64.38.22.38.13,0,.71l1.18-.85L19,3.82c.39-.17.71-.61,1-.63-.29.43-.27.34,0,.53-.74-.25-.9.78-1.65.73l-.38-.82c-1.13.07-1.4,1.24-2.63,1.73l.44-.08c0,.4-.66.46-.95.81-.13-.28-.42-.23-.68-.29.15.17-.8.57-.54,1.13l-.7,0c-1,.52-.46,1.38-1.25,2,0-.45-.48-.3-.12-.94-.26.23-.52.39-.39.56-.27,0-.42.93-.85.93,0,.2.17.45-.12.69a.18.18,0,0,1-.11-.11c.09.1-.27.56.19.56-1.35.14-1.93,2.12-3,2.37-.36.66-.83,1.42-1.19,2,0-.09-.12-.08,0-.18-.72.64.43,1-.37,1.68-.7.2.06-.61-.27-.43-.92-.37-.57,1.14-1.39,1.5l0-.18c-.55.34-.25,1.37-.7,2.14,0,0-.06-.08-.13-.07a7.69,7.69,0,0,1-.2,2.71c-.27-.37-.06-.43-.49-.41-.07.38.64.11.49.85-.28.16-.66.61-1.07.56,0-.23.15-.46.21-.69-.66.18-.28.9-.45,1.24l-.22-.11c-.2,1.1.38,1.26,0,2.39l.21-.08c.44.74-.42.46-.09,1.17l-.63.09a20.78,20.78,0,0,1,.38,2.32,5.48,5.48,0,0,1-.68-2c-.07.42-.18,1.45.09,1.69,0-.17-.15-.4,0-.56a3.37,3.37,0,0,1,.54,2.09C.07,30.51.81,32.88,0,33.51A6.1,6.1,0,0,1,.21,35.8a14.64,14.64,0,0,0,.18,2.5c.8-.79.11.5,1,.22.12.38.17.52.11.57l0-.08,0,.09h0l-.24,1.32c-.19.36-.3-.33-.49-.24.16.9-.29.47-.38,1.13.29-.21.54.17.55.72l.23-.83c.78,1.07-.42,1.28.47,2.34l-.42-.28c.38.57.83,2.33,1.85,2.57-.05.15-.22.39-.4.16a7.73,7.73,0,0,0,1.38,2.09A4.36,4.36,0,0,1,5.24,50L5,50c.21.22.6.21.64.62-.09,0-.26,0-.19.16s.79.39.92.77L6,51.41A3.19,3.19,0,0,0,7.27,52.8a7.83,7.83,0,0,1,1.56.89c-.49.44.13,1.52.51,2l-.08.06a8.28,8.28,0,0,0,2,1.41c.67.35,1.42.57,2.14,1A3.6,3.6,0,0,0,15,59.81c.8.51,1.65,1.08,2.32,1.59-.17-.22.28-.45.57-.38.29.29,1.15,0,.84.57l-.12-.07c0,.66.79.9,1.38,1.11l.39-.72a3.53,3.53,0,0,0,2.54,1.26c1,.13,1.84.21,2.16.83a9.73,9.73,0,0,0,1.31-.15l-.1.42a10.2,10.2,0,0,0,2.95.46l-.31.3c.78.07,1.06-1.2,1.74-1.19l.18.66c1.29.11,2.67.52,3.93-.11a.31.31,0,0,1-.25.32c.62.05,2.46.15,2.11-.69.09.57,1.36-.13,2-.52l0,.45c.46-.68.44-.83,1.2-1.18.2,0,.25.29,0,.24.69.06.39-.51,1.2-.49l-.2.34c.65-.15.57-.25.81-.68s1.21-.33,1.44,0a.76.76,0,0,1,.64-.7c.11.11,0,.25,0,.31,1.18-.09,1.32-1.12,2.19-1a.32.32,0,0,0,.23.17,9.61,9.61,0,0,1-1.42.61c.15.37.85.11.54.86.42-.53,1-1.54,1.75-1.68a.37.37,0,0,1,.15.08l0,.07a.61.61,0,0,0,.38-.26,2.07,2.07,0,0,0,.56-.2c.23.24.81-.28,1.13-.46-.26-.35.18-.53-.38-.61.06,0,0,.08-.23.22,0,0-.09.08-.1.12v0l-.75.49c.13-.34.29-.65.75-.65a7.4,7.4,0,0,1,.06-.84c.73.26,1.72,0,2,.23.73-.88,2-1.66,2-2.77.15-.29.41-.07.58,0-.08.18-.24.32-.24.47.32-.57,1.31-1.3,1-1.81.74-.34,0,.69.75-.13l0,.23a3.45,3.45,0,0,0,1.71-2.24,3.44,3.44,0,0,1,1.75-2.39c-.15.09-.23.13-.33.1,1.93-1.94,2.42-4.85,4-7,.41-.65.09-.85,0-1.36h.49c-.09-.3-.2-.6-.31-.9,0-.58.34-1,.7-1.4A1.57,1.57,0,0,0,63,37.86l-.33.12c.13-.48.05-1.58.39-1.45,0-.06-.29-.2-.1-.38l.24,0a9.54,9.54,0,0,0-.29-1.26C63.15,34,63.88,35.14,64,33.73ZM48.37,60a.53.53,0,0,1,0,.24c-.17.18-.29.15-.36.09l.34-.27ZM61.76,25.36s0,0-.06.05a1.6,1.6,0,0,1-.05-.21A1.53,1.53,0,0,0,61.76,25.36Z"/><path class="cls-1" d="M48.48,59.54s0,0,.07-.08h-.17v.16Z"/><path class="cls-1" d="M50.25,7.19a.14.14,0,0,1,0,.09s0,0,0-.06Z"/><path class="cls-1" d="M61.41,21c.06-1.28-.26.36-.62-.79.08.3.13.6.2.9C61.09,20.87,61.23,20.59,61.41,21Z"/><path class="cls-1" d="M60.07,17.37c-.28-.21-.35-.25-.3.14C60.05,17.92,60,17.39,60.07,17.37Z"/><path class="cls-1" d="M45.11,3.39c-.38-.12-.07.13-.21.33Z"/><polygon class="cls-1" points="39.3 0.99 38.63 0.96 39.12 1 39.3 0.99"/><path class="cls-1" d="M7.31,12.06l.45.22C7.87,12,7.48,11.64,7.31,12.06Z"/><path class="cls-1" d="M1.22,25.79a.57.57,0,0,0-.31.8C1,26.26,1.23,26,1.22,25.79Z"/><polygon class="cls-1" points="20.55 62.79 21.14 62.86 20.9 62.74 20.55 62.79"/><path class="cls-2" d="M47.57,22l-5-5L20.13,39.33l-2.05,6.29-1.65,1.66.81.81,1.64-1.65L25,44.52ZM41.2,24.17l1.28,1.28-17,17-1.31-1.3ZM23.39,40.3,22.08,39l17-17,1.33,1.33ZM45.94,22l-2.65,2.65-3.42-3.43,2.65-2.65ZM19.45,45.06,21,40l.23-.23,3.42,3.43-.22.22Z"/></g></svg>